<svg xmlns="http://www.w3.org/2000/svg" xmlns:xlink="http://www.w3.org/1999/xlink" width="1080" zoomAndPan="magnify" viewBox="0 0 810 809.999993" height="1080" preserveAspectRatio="xMidYMid meet" version="1.0"><defs><g/><clipPath id="218f1edbf0"><path d="M 27.402344 27.402344 L 782.652344 27.402344 L 782.652344 782.652344 L 27.402344 782.652344 Z M 27.402344 27.402344 " clip-rule="nonzero"/></clipPath></defs><g clip-path="url(#218f1edbf0)"><path fill="#000000" d="M 782.761719 171.429688 C 782.761719 91.90625 718.203125 27.339844 638.679688 27.339844 L 171.5 27.339844 C 91.976562 27.339844 27.410156 91.90625 27.410156 171.429688 L 27.410156 638.617188 C 27.410156 718.140625 91.976562 782.707031 171.5 782.707031 C 171.5 782.707031 638.679688 782.707031 638.679688 782.707031 C 718.203125 782.707031 782.761719 718.140625 782.761719 638.617188 Z M 775.304688 171.429688 C 775.304688 96.027344 714.09375 34.808594 638.679688 34.808594 L 171.5 34.808594 C 96.097656 34.808594 34.878906 96.027344 34.878906 171.429688 L 34.878906 638.617188 C 34.878906 714.019531 96.097656 775.238281 171.5 775.238281 L 638.679688 775.238281 C 714.09375 775.238281 775.304688 714.019531 775.304688 638.617188 Z M 775.304688 171.429688 " fill-opacity="1" fill-rule="evenodd"/></g><g fill="#000000" fill-opacity="1"><g transform="translate(41.560549, 595.85819)"><g><path d="M 48.375 0 L 48.375 -372.21875 L 207.25 -372.21875 C 230.15625 -372.21875 249.539062 -368.609375 265.40625 -361.390625 C 281.28125 -354.179688 293.289062 -343.914062 301.4375 -330.59375 C 309.59375 -317.269531 313.671875 -301.53125 313.671875 -283.375 C 313.671875 -266.90625 309.679688 -252.390625 301.703125 -239.828125 C 293.722656 -227.273438 282.265625 -217.175781 267.328125 -209.53125 L 267.328125 -204.1875 C 290.753906 -198.082031 308.832031 -186.96875 321.5625 -170.84375 C 334.289062 -154.71875 340.65625 -134.941406 340.65625 -111.515625 C 340.65625 -75.867188 329.914062 -48.367188 308.4375 -29.015625 C 286.96875 -9.671875 255.101562 0 212.84375 0 Z M 191.96875 -223.796875 C 226.25 -223.796875 243.390625 -239.238281 243.390625 -270.125 C 243.390625 -285.914062 239.144531 -297.671875 230.65625 -305.390625 C 222.175781 -313.117188 209.28125 -316.984375 191.96875 -316.984375 L 121.953125 -316.984375 L 121.953125 -223.796875 Z M 205.46875 -58.296875 C 246.03125 -58.296875 266.3125 -76.710938 266.3125 -113.546875 C 266.3125 -150.554688 246.03125 -169.0625 205.46875 -169.0625 L 121.953125 -169.0625 L 121.953125 -58.296875 Z M 205.46875 -58.296875 "/></g></g><g transform="translate(405.634467, 595.85819)"><g><path d="M 357.203125 0 L 279.8125 0 L 251.796875 -85.796875 L 109.21875 -85.796875 L 81.21875 0 L 5.59375 0 L 134.171875 -372.21875 L 228.625 -372.21875 Z M 176.953125 -294.578125 L 129.078125 -147.671875 L 231.4375 -147.671875 L 183.3125 -294.578125 Z M 176.953125 -294.578125 "/></g></g></g></svg>